{"title":"Kuch Kuch Locha Hai [2015] - PDVDRip - AAC - x264 - [Exclusive]","uid":11896755,"size":802991719,"categoryP":"video","categoryS":"movies","magnet":"?xt=urn:btih:5a11b216904d95bf626ac3eaf53427a0d55ae381&amp;dn=Kuch+Kuch+Locha+Hai+%5B2015%5D+-+PDVDRip+-+AAC+-+x264+-+%5BExclusive%5D+&amp;tr=udp%3A%2F%2Ftracker.openbittorrent.com%3A80&amp;tr=udp%3A%2F%2Fopen.demonii.com%3A1337&amp;tr=udp%3A%2F%2Ftracker.coppersurfer.tk%3A6969&amp;tr=udp%3A%2F%2Fexodus.desync.com%3A6969","seeders":14,"leechers":3,"uploader":"makintos13","files":1,"time":1431184060,"description":"Screens:\n\n &lt;a href=&quot;\nhttp://imgmak.com/mZ&quot; rel=&quot;nofollow&quot; target=&quot;_NEW&quot;&gt;\nhttp://imgmak.com/mZ&lt;/a&gt;\n &lt;a href=&quot;\nhttp://imgmak.com/mc&quot; rel=&quot;nofollow&quot; target=&quot;_NEW&quot;&gt;\nhttp://imgmak.com/mc&lt;/a&gt;\n &lt;a href=&quot;\nhttp://imgmak.com/mn&quot; rel=&quot;nofollow&quot; target=&quot;_NEW&quot;&gt;\nhttp://imgmak.com/mn&lt;/a&gt;\n &lt;a href=&quot;\nhttp://imgmak.com/mr&quot; rel=&quot;nofollow&quot; target=&quot;_NEW&quot;&gt;\nhttp://imgmak.com/mr&lt;/a&gt;\n &lt;a href=&quot;\nhttp://imgmak.com/mB&quot; rel=&quot;nofollow&quot; target=&quot;_NEW&quot;&gt;\nhttp://imgmak.com/mB&lt;/a&gt;\n\n\nFormat : MPEG-4\nFormat profile : Base Media / Version 2\nCodec ID : mp42\nFile size : 766 MiB\nDuration : 2h 20mn\nOverall bit rate mode : Variable\nOverall bit rate : 761 Kbps\n\nVideo\nID : 1\nFormat : AVC\nFormat/Info : Advanced Video Codec\nFormat profile : Main@L4\nFormat settings, CABAC : Yes\nFormat settings, ReFrames : 4 frames\nCodec ID : avc1\nCodec ID/Info : Advanced Video Coding\nDuration : 2h 20mn\nBit rate : 595 Kbps\nWidth : 640 pixels\nHeight : 412 pixels\nDisplay aspect ratio : 2.25:1\nFrame rate mode : Constant\nFrame rate : 25.000 fps\nColor space : YUV\nChroma subsampling : 4:2:0\nBit depth : 8 bits\nScan type : Progressive\nBits/(Pixel*Frame) : 0.090\nStream size : 599 MiB (78%)\nWriting library : x264 core\nColor range : Limited\nColor primaries : BT.601 PAL\nTransfer characteristics : BT.709\nMatrix coefficients : BT.601\n\nLANG : HINDI \n\nAudio\nID : 2\nFormat : AAC\nFormat/Info : Advanced Audio Codec\nFormat profile : LC\nCodec ID : 40\nDuration : 2h 20mn\nBit rate mode : Variable\nBit rate : 160 Kbps\nChannel(s) : 2 channels\nChannel positions : Front: L R\nSampling rate : 48.0 KHz\nCompression mode : Lossy\nStream size : 161 MiB (21%)\nTitle : Stereo / Stereo","torrent":{"xt":"urn:btih:5a11b216904d95bf626ac3eaf53427a0d55ae381","amp;dn":"Kuch+Kuch+Locha+Hai+%5B2015%5D+-+PDVDRip+-+AAC+-+x264+-+%5BExclusive%5D+","amp;tr":["udp%3A%2F%2Ftracker.openbittorrent.com%3A80","udp%3A%2F%2Fopen.demonii.com%3A1337","udp%3A%2F%2Ftracker.coppersurfer.tk%3A6969","udp%3A%2F%2Fexodus.desync.com%3A6969"],"infoHash":"5a11b216904d95bf626ac3eaf53427a0d55ae381","infoHashBuffer":{"type":"Buffer","data":[90,17,178,22,144,77,149,191,98,106,195,234,245,52,39,160,213,90,227,129]},"announce":[],"urlList":[]}}